<svg width="90" height="90" viewBox="0 0 90 90" fill="none" xmlns="http://www.w3.org/2000/svg">
<g clip-path="url(#clip0_3_172)">
<path d="M83.5086 21.2032H68.7968V6.49139C68.7968 2.91338 65.8834 0 62.3054 0H27.6896C24.1116 0 21.1982 2.91338 21.1982 6.49139V21.2032H6.49139C2.91338 21.2032 0 24.1116 0 27.6946V62.3104C0 65.8884 2.91338 68.8018 6.49139 68.8018H21.2032V83.5136C21.2032 87.0916 24.1116 90.005 27.6946 90.005H62.3104C65.8884 90.005 68.8018 87.0916 68.8018 83.5136V68.8018H83.5136C87.0916 68.8018 90.005 65.8884 90.005 62.3104V27.6946C90 24.1116 87.0866 21.2032 83.5086 21.2032ZM83.0738 61.8756H68.7968V35.0455H61.8756V83.0738H28.1244V68.7968H54.9495V61.8756H6.92115V28.1244H21.1982V54.9495H28.1194V6.92115H61.8656V21.1982H35.0505V28.1194H83.0788V61.8756H83.0738Z" fill="url(#paint0_linear_3_172)"/>
</g>
<defs>
<linearGradient id="paint0_linear_3_172" x1="-2.17591e-07" y1="4.61564" x2="98.2243" y2="23.7272" gradientUnits="userSpaceOnUse">
<stop stop-color="#0EBE7E"/>
<stop offset="1" stop-color="#07D9AD"/>
</linearGradient>
<clipPath id="clip0_3_172">
<rect width="90" height="90" fill="white"/>
</clipPath>
</defs>
</svg>
